<svg width="620" height="253" viewBox="0 0 620 253" fill="none" xmlns="http://www.w3.org/2000/svg">
<mask id="path-1-outside-1_7221_23479" maskUnits="userSpaceOnUse" x="39" y="13" width="543" height="227" fill="black">
<rect fill="white" x="39" y="13" width="543" height="227"/>
<path d="M560.362 236.32C555.815 236.32 551.734 235.442 548.117 233.685C544.5 231.929 541.659 229.087 539.592 225.16C537.525 221.13 536.492 215.86 536.492 209.35V177.73H523.627V165.485H536.492V151.535L551.527 147.195V165.485H570.437V177.73H551.527V203.615C551.527 209.919 552.25 214.93 553.697 218.65C555.247 222.267 558.037 224.075 562.067 224.075C565.064 224.075 568.577 223.094 572.607 221.13L575.552 232.445C573.175 233.479 570.695 234.357 568.112 235.08C565.529 235.907 562.945 236.32 560.362 236.32Z"/>
<path d="M512.348 225.47C508.008 229.19 503.462 231.929 498.708 233.685C494.058 235.442 489.15 236.32 483.983 236.32C476.337 236.32 469.672 234.822 463.988 231.825C458.305 228.829 453.913 224.592 450.813 219.115C447.817 213.535 446.318 207.025 446.318 199.585C446.318 192.249 447.765 185.842 450.658 180.365C453.552 174.785 457.633 170.445 462.903 167.345C468.277 164.245 474.425 162.695 481.348 162.695C488.168 162.695 494.058 164.142 499.018 167.035C503.978 169.825 507.802 173.752 510.488 178.815C513.278 183.879 514.673 189.82 514.673 196.64C514.673 197.777 514.622 199.017 514.518 200.36C514.415 201.704 514.26 202.995 514.053 204.235L461.353 204.39C461.663 208.937 462.852 212.657 464.918 215.55C467.088 218.34 469.775 220.459 472.978 221.905C476.285 223.249 479.85 223.92 483.673 223.92C488.117 223.92 492.25 223.249 496.073 221.905C499.897 220.562 503.358 218.599 506.458 216.015L512.348 225.47ZM499.173 193.23C499.173 187.857 497.572 183.517 494.368 180.21C491.268 176.8 487.032 175.095 481.658 175.095C476.595 175.095 472.1 176.8 468.173 180.21C464.35 183.517 462.18 187.857 461.663 193.23H499.173Z"/>
<path d="M395.272 233.686V221.286H408.292V147.506L393.102 143.321L396.822 130.766L423.792 138.361V221.286H436.812V233.686H395.272Z"/>
<path d="M352.775 233.686V221.286H365.795V147.506L348.605 143.321L354.325 130.766L381.295 138.361V221.286H394.315V233.686H352.775Z"/>
<path d="M317.843 229.965C310.817 234.202 303.48 236.32 295.833 236.32C286.533 236.32 279.455 234.512 274.598 230.895C269.845 227.279 267.417 222.009 267.313 215.085C267.21 200.929 276.355 193.85 294.748 193.85L313.038 194.005C313.038 187.495 311.747 182.69 309.163 179.59C306.683 176.387 303.17 174.785 298.623 174.785C296.247 174.785 293.973 174.94 291.803 175.25C289.633 175.56 287.567 176.025 285.603 176.645L284.053 184.705L271.188 182.69L273.978 167.19C278.008 165.744 282.09 164.659 286.223 163.935C290.357 163.109 294.49 162.695 298.623 162.695C308.44 162.695 315.88 165.33 320.943 170.6C326.11 175.767 328.693 183.414 328.693 193.54V219.735L342.333 224.23L338.303 236.94L317.843 229.965ZM295.213 204.855C291.39 204.855 288.445 205.734 286.378 207.49C284.312 209.144 283.278 211.572 283.278 214.775C283.278 221.182 287.67 224.385 296.453 224.385C302.653 224.385 308.182 222.732 313.038 219.425V204.855H295.213Z"/>
<path d="M174.043 233.685L155.597 177.73H144.438V165.485H180.862V177.73H171.562L178.693 202.53L183.497 218.96L187.837 202.84L196.362 175.25H211.862L220.388 203.15L224.883 219.27L229.223 203.615L237.283 177.73H228.138V165.485H262.858V177.73H251.853L232.478 233.685H216.513L203.957 192.61L190.628 233.685H174.043Z"/>
<path d="M542.611 55.99C546.641 53.3033 550.723 51.34 554.856 50.1C559.093 48.7566 563.278 48.085 567.411 48.085C571.234 48.085 574.283 48.55 576.556 49.48L579.191 67.46L566.326 70.25L564.776 61.725C561.366 61.9316 558.111 62.5 555.011 63.43C551.911 64.36 549.224 65.6 546.951 67.15L546.796 106.365H561.986V118.765H518.276V106.365H531.296V66.065L516.416 61.105L520.601 48.55L542.611 55.99Z"/>
<path d="M505.872 110.549C501.532 114.269 496.985 117.008 492.232 118.764C487.582 120.521 482.673 121.399 477.507 121.399C469.86 121.399 463.195 119.901 457.512 116.904C451.828 113.908 447.437 109.671 444.337 104.194C441.34 98.6144 439.842 92.1044 439.842 84.6644C439.842 77.3278 441.288 70.9211 444.182 65.4444C447.075 59.8644 451.157 55.5244 456.427 52.4244C461.8 49.3244 467.948 47.7744 474.872 47.7744C481.692 47.7744 487.582 49.2211 492.542 52.1144C497.502 54.9044 501.325 58.8311 504.012 63.8944C506.802 68.9577 508.197 74.8994 508.197 81.7194C508.197 82.8561 508.145 84.0961 508.042 85.4394C507.938 86.7828 507.783 88.0744 507.577 89.3144L454.877 89.4694C455.187 94.0161 456.375 97.7361 458.442 100.629C460.612 103.419 463.298 105.538 466.502 106.984C469.808 108.328 473.373 108.999 477.197 108.999C481.64 108.999 485.773 108.328 489.597 106.984C493.42 105.641 496.882 103.678 499.982 101.094L505.872 110.549ZM492.697 78.3094C492.697 72.9361 491.095 68.5961 487.892 65.2894C484.792 61.8794 480.555 60.1744 475.182 60.1744C470.118 60.1744 465.623 61.8794 461.697 65.2894C457.873 68.5961 455.703 72.9361 455.187 78.3094H492.697Z"/>
<path d="M342.91 118.765V106.365H355.93V33.515L341.205 28.4L345.235 16L371.43 24.835V53.975C378.043 49.8417 385.277 47.775 393.13 47.775C401.913 47.775 408.527 50.1 412.97 54.75C417.413 59.4 419.635 66.2717 419.635 75.365V106.365H432.655V118.765H397.47V106.365H403.98V77.845C403.98 71.8517 402.792 67.5117 400.415 64.825C398.142 62.1383 394.473 60.795 389.41 60.795C386.62 60.795 383.572 61.2083 380.265 62.035C376.958 62.8617 374.065 63.9467 371.585 65.29V106.365H378.25V118.765H342.91Z"/>
<path d="M320.477 121.399C315.931 121.399 311.849 120.521 308.232 118.764C304.616 117.008 301.774 114.166 299.707 110.239C297.641 106.209 296.607 100.939 296.607 94.4294V62.8094H283.742V50.5644H296.607V36.6144L311.642 32.2744V50.5644H330.552V62.8094H311.642V88.6944C311.642 94.9978 312.366 100.009 313.812 103.729C315.362 107.346 318.152 109.154 322.182 109.154C325.179 109.154 328.692 108.173 332.722 106.209L335.667 117.524C333.291 118.558 330.811 119.436 328.227 120.159C325.644 120.986 323.061 121.399 320.477 121.399Z"/>
<path d="M256.355 115.044C249.328 119.281 241.992 121.399 234.345 121.399C225.045 121.399 217.967 119.591 213.11 115.974C208.357 112.358 205.928 107.088 205.825 100.164C205.722 86.0078 214.867 78.9294 233.26 78.9294L251.55 79.0844C251.55 72.5744 250.258 67.7694 247.675 64.6694C245.195 61.4661 241.682 59.8644 237.135 59.8644C234.758 59.8644 232.485 60.0194 230.315 60.3294C228.145 60.6394 226.078 61.1044 224.115 61.7244L222.565 69.7844L209.7 67.7694L212.49 52.2694C216.52 50.8228 220.602 49.7377 224.735 49.0144C228.868 48.1877 233.002 47.7744 237.135 47.7744C246.952 47.7744 254.392 50.4094 259.455 55.6794C264.622 60.8461 267.205 68.4927 267.205 78.6194V104.814L280.845 109.309L276.815 122.019L256.355 115.044ZM233.725 89.9344C229.902 89.9344 226.957 90.8128 224.89 92.5694C222.823 94.2228 221.79 96.6511 221.79 99.8544C221.79 106.261 226.182 109.464 234.965 109.464C241.165 109.464 246.693 107.811 251.55 104.504V89.9344H233.725Z"/>
<path d="M192.997 110.549C188.657 114.269 184.11 117.008 179.357 118.764C174.707 120.521 169.798 121.399 164.632 121.399C156.985 121.399 150.32 119.901 144.637 116.904C138.953 113.908 134.562 109.671 131.462 104.194C128.465 98.6144 126.967 92.1044 126.967 84.6644C126.967 77.3278 128.413 70.9211 131.307 65.4444C134.2 59.8644 138.282 55.5244 143.552 52.4244C148.925 49.3244 155.073 47.7744 161.997 47.7744C168.817 47.7744 174.707 49.2211 179.667 52.1144C184.627 54.9044 188.45 58.8311 191.137 63.8944C193.927 68.9577 195.322 74.8994 195.322 81.7194C195.322 82.8561 195.27 84.0961 195.167 85.4394C195.063 86.7828 194.908 88.0744 194.702 89.3144L142.002 89.4694C142.312 94.0161 143.5 97.7361 145.567 100.629C147.737 103.419 150.423 105.538 153.627 106.984C156.933 108.328 160.498 108.999 164.322 108.999C168.765 108.999 172.898 108.328 176.722 106.984C180.545 105.641 184.007 103.678 187.107 101.094L192.997 110.549ZM179.822 78.3094C179.822 72.9361 178.22 68.5961 175.017 65.2894C171.917 61.8794 167.68 60.1744 162.307 60.1744C157.243 60.1744 152.748 61.8794 148.822 65.2894C144.998 68.5961 142.828 72.9361 142.312 78.3094H179.822Z"/>
<path d="M41 27.4697H89.205V41.2647H72.62L72.465 104.97H98.97L104.705 89.1597L117.725 93.6547L109.045 118.765H41V104.97H56.81L56.965 41.2647H41V27.4697Z"/>
</mask>
<path d="M560.362 236.32C555.815 236.32 551.734 235.442 548.117 233.685C544.5 231.929 541.659 229.087 539.592 225.16C537.525 221.13 536.492 215.86 536.492 209.35V177.73H523.627V165.485H536.492V151.535L551.527 147.195V165.485H570.437V177.73H551.527V203.615C551.527 209.919 552.25 214.93 553.697 218.65C555.247 222.267 558.037 224.075 562.067 224.075C565.064 224.075 568.577 223.094 572.607 221.13L575.552 232.445C573.175 233.479 570.695 234.357 568.112 235.08C565.529 235.907 562.945 236.32 560.362 236.32Z" fill="black"/>
<path d="M512.348 225.47C508.008 229.19 503.462 231.929 498.708 233.685C494.058 235.442 489.15 236.32 483.983 236.32C476.337 236.32 469.672 234.822 463.988 231.825C458.305 228.829 453.913 224.592 450.813 219.115C447.817 213.535 446.318 207.025 446.318 199.585C446.318 192.249 447.765 185.842 450.658 180.365C453.552 174.785 457.633 170.445 462.903 167.345C468.277 164.245 474.425 162.695 481.348 162.695C488.168 162.695 494.058 164.142 499.018 167.035C503.978 169.825 507.802 173.752 510.488 178.815C513.278 183.879 514.673 189.82 514.673 196.64C514.673 197.777 514.622 199.017 514.518 200.36C514.415 201.704 514.26 202.995 514.053 204.235L461.353 204.39C461.663 208.937 462.852 212.657 464.918 215.55C467.088 218.34 469.775 220.459 472.978 221.905C476.285 223.249 479.85 223.92 483.673 223.92C488.117 223.92 492.25 223.249 496.073 221.905C499.897 220.562 503.358 218.599 506.458 216.015L512.348 225.47ZM499.173 193.23C499.173 187.857 497.572 183.517 494.368 180.21C491.268 176.8 487.032 175.095 481.658 175.095C476.595 175.095 472.1 176.8 468.173 180.21C464.35 183.517 462.18 187.857 461.663 193.23H499.173Z" fill="black"/>
<path d="M395.272 233.686V221.286H408.292V147.506L393.102 143.321L396.822 130.766L423.792 138.361V221.286H436.812V233.686H395.272Z" fill="black"/>
<path d="M352.775 233.686V221.286H365.795V147.506L348.605 143.321L354.325 130.766L381.295 138.361V221.286H394.315V233.686H352.775Z" fill="black"/>
<path d="M317.843 229.965C310.817 234.202 303.48 236.32 295.833 236.32C286.533 236.32 279.455 234.512 274.598 230.895C269.845 227.279 267.417 222.009 267.313 215.085C267.21 200.929 276.355 193.85 294.748 193.85L313.038 194.005C313.038 187.495 311.747 182.69 309.163 179.59C306.683 176.387 303.17 174.785 298.623 174.785C296.247 174.785 293.973 174.94 291.803 175.25C289.633 175.56 287.567 176.025 285.603 176.645L284.053 184.705L271.188 182.69L273.978 167.19C278.008 165.744 282.09 164.659 286.223 163.935C290.357 163.109 294.49 162.695 298.623 162.695C308.44 162.695 315.88 165.33 320.943 170.6C326.11 175.767 328.693 183.414 328.693 193.54V219.735L342.333 224.23L338.303 236.94L317.843 229.965ZM295.213 204.855C291.39 204.855 288.445 205.734 286.378 207.49C284.312 209.144 283.278 211.572 283.278 214.775C283.278 221.182 287.67 224.385 296.453 224.385C302.653 224.385 308.182 222.732 313.038 219.425V204.855H295.213Z" fill="black"/>
<path d="M174.043 233.685L155.597 177.73H144.438V165.485H180.862V177.73H171.562L178.693 202.53L183.497 218.96L187.837 202.84L196.362 175.25H211.862L220.388 203.15L224.883 219.27L229.223 203.615L237.283 177.73H228.138V165.485H262.858V177.73H251.853L232.478 233.685H216.513L203.957 192.61L190.628 233.685H174.043Z" fill="black"/>
<path d="M542.611 55.99C546.641 53.3033 550.723 51.34 554.856 50.1C559.093 48.7566 563.278 48.085 567.411 48.085C571.234 48.085 574.283 48.55 576.556 49.48L579.191 67.46L566.326 70.25L564.776 61.725C561.366 61.9316 558.111 62.5 555.011 63.43C551.911 64.36 549.224 65.6 546.951 67.15L546.796 106.365H561.986V118.765H518.276V106.365H531.296V66.065L516.416 61.105L520.601 48.55L542.611 55.99Z" fill="black"/>
<path d="M505.872 110.549C501.532 114.269 496.985 117.008 492.232 118.764C487.582 120.521 482.673 121.399 477.507 121.399C469.86 121.399 463.195 119.901 457.512 116.904C451.828 113.908 447.437 109.671 444.337 104.194C441.34 98.6144 439.842 92.1044 439.842 84.6644C439.842 77.3278 441.288 70.9211 444.182 65.4444C447.075 59.8644 451.157 55.5244 456.427 52.4244C461.8 49.3244 467.948 47.7744 474.872 47.7744C481.692 47.7744 487.582 49.2211 492.542 52.1144C497.502 54.9044 501.325 58.8311 504.012 63.8944C506.802 68.9577 508.197 74.8994 508.197 81.7194C508.197 82.8561 508.145 84.0961 508.042 85.4394C507.938 86.7828 507.783 88.0744 507.577 89.3144L454.877 89.4694C455.187 94.0161 456.375 97.7361 458.442 100.629C460.612 103.419 463.298 105.538 466.502 106.984C469.808 108.328 473.373 108.999 477.197 108.999C481.64 108.999 485.773 108.328 489.597 106.984C493.42 105.641 496.882 103.678 499.982 101.094L505.872 110.549ZM492.697 78.3094C492.697 72.9361 491.095 68.5961 487.892 65.2894C484.792 61.8794 480.555 60.1744 475.182 60.1744C470.118 60.1744 465.623 61.8794 461.697 65.2894C457.873 68.5961 455.703 72.9361 455.187 78.3094H492.697Z" fill="black"/>
<path d="M342.91 118.765V106.365H355.93V33.515L341.205 28.4L345.235 16L371.43 24.835V53.975C378.043 49.8417 385.277 47.775 393.13 47.775C401.913 47.775 408.527 50.1 412.97 54.75C417.413 59.4 419.635 66.2717 419.635 75.365V106.365H432.655V118.765H397.47V106.365H403.98V77.845C403.98 71.8517 402.792 67.5117 400.415 64.825C398.142 62.1383 394.473 60.795 389.41 60.795C386.62 60.795 383.572 61.2083 380.265 62.035C376.958 62.8617 374.065 63.9467 371.585 65.29V106.365H378.25V118.765H342.91Z" fill="black"/>
<path d="M320.477 121.399C315.931 121.399 311.849 120.521 308.232 118.764C304.616 117.008 301.774 114.166 299.707 110.239C297.641 106.209 296.607 100.939 296.607 94.4294V62.8094H283.742V50.5644H296.607V36.6144L311.642 32.2744V50.5644H330.552V62.8094H311.642V88.6944C311.642 94.9978 312.366 100.009 313.812 103.729C315.362 107.346 318.152 109.154 322.182 109.154C325.179 109.154 328.692 108.173 332.722 106.209L335.667 117.524C333.291 118.558 330.811 119.436 328.227 120.159C325.644 120.986 323.061 121.399 320.477 121.399Z" fill="black"/>
<path d="M256.355 115.044C249.328 119.281 241.992 121.399 234.345 121.399C225.045 121.399 217.967 119.591 213.11 115.974C208.357 112.358 205.928 107.088 205.825 100.164C205.722 86.0078 214.867 78.9294 233.26 78.9294L251.55 79.0844C251.55 72.5744 250.258 67.7694 247.675 64.6694C245.195 61.4661 241.682 59.8644 237.135 59.8644C234.758 59.8644 232.485 60.0194 230.315 60.3294C228.145 60.6394 226.078 61.1044 224.115 61.7244L222.565 69.7844L209.7 67.7694L212.49 52.2694C216.52 50.8228 220.602 49.7377 224.735 49.0144C228.868 48.1877 233.002 47.7744 237.135 47.7744C246.952 47.7744 254.392 50.4094 259.455 55.6794C264.622 60.8461 267.205 68.4927 267.205 78.6194V104.814L280.845 109.309L276.815 122.019L256.355 115.044ZM233.725 89.9344C229.902 89.9344 226.957 90.8128 224.89 92.5694C222.823 94.2228 221.79 96.6511 221.79 99.8544C221.79 106.261 226.182 109.464 234.965 109.464C241.165 109.464 246.693 107.811 251.55 104.504V89.9344H233.725Z" fill="black"/>
<path d="M192.997 110.549C188.657 114.269 184.11 117.008 179.357 118.764C174.707 120.521 169.798 121.399 164.632 121.399C156.985 121.399 150.32 119.901 144.637 116.904C138.953 113.908 134.562 109.671 131.462 104.194C128.465 98.6144 126.967 92.1044 126.967 84.6644C126.967 77.3278 128.413 70.9211 131.307 65.4444C134.2 59.8644 138.282 55.5244 143.552 52.4244C148.925 49.3244 155.073 47.7744 161.997 47.7744C168.817 47.7744 174.707 49.2211 179.667 52.1144C184.627 54.9044 188.45 58.8311 191.137 63.8944C193.927 68.9577 195.322 74.8994 195.322 81.7194C195.322 82.8561 195.27 84.0961 195.167 85.4394C195.063 86.7828 194.908 88.0744 194.702 89.3144L142.002 89.4694C142.312 94.0161 143.5 97.7361 145.567 100.629C147.737 103.419 150.423 105.538 153.627 106.984C156.933 108.328 160.498 108.999 164.322 108.999C168.765 108.999 172.898 108.328 176.722 106.984C180.545 105.641 184.007 103.678 187.107 101.094L192.997 110.549ZM179.822 78.3094C179.822 72.9361 178.22 68.5961 175.017 65.2894C171.917 61.8794 167.68 60.1744 162.307 60.1744C157.243 60.1744 152.748 61.8794 148.822 65.2894C144.998 68.5961 142.828 72.9361 142.312 78.3094H179.822Z" fill="black"/>
<path d="M41 27.4697H89.205V41.2647H72.62L72.465 104.97H98.97L104.705 89.1597L117.725 93.6547L109.045 118.765H41V104.97H56.81L56.965 41.2647H41V27.4697Z" fill="black"/>
<path d="M560.362 236.32C555.815 236.32 551.734 235.442 548.117 233.685C544.5 231.929 541.659 229.087 539.592 225.16C537.525 221.13 536.492 215.86 536.492 209.35V177.73H523.627V165.485H536.492V151.535L551.527 147.195V165.485H570.437V177.73H551.527V203.615C551.527 209.919 552.25 214.93 553.697 218.65C555.247 222.267 558.037 224.075 562.067 224.075C565.064 224.075 568.577 223.094 572.607 221.13L575.552 232.445C573.175 233.479 570.695 234.357 568.112 235.08C565.529 235.907 562.945 236.32 560.362 236.32Z" stroke="black" stroke-width="4" mask="url(#path-1-outside-1_7221_23479)"/>
<path d="M512.348 225.47C508.008 229.19 503.462 231.929 498.708 233.685C494.058 235.442 489.15 236.32 483.983 236.32C476.337 236.32 469.672 234.822 463.988 231.825C458.305 228.829 453.913 224.592 450.813 219.115C447.817 213.535 446.318 207.025 446.318 199.585C446.318 192.249 447.765 185.842 450.658 180.365C453.552 174.785 457.633 170.445 462.903 167.345C468.277 164.245 474.425 162.695 481.348 162.695C488.168 162.695 494.058 164.142 499.018 167.035C503.978 169.825 507.802 173.752 510.488 178.815C513.278 183.879 514.673 189.82 514.673 196.64C514.673 197.777 514.622 199.017 514.518 200.36C514.415 201.704 514.26 202.995 514.053 204.235L461.353 204.39C461.663 208.937 462.852 212.657 464.918 215.55C467.088 218.34 469.775 220.459 472.978 221.905C476.285 223.249 479.85 223.92 483.673 223.92C488.117 223.92 492.25 223.249 496.073 221.905C499.897 220.562 503.358 218.599 506.458 216.015L512.348 225.47ZM499.173 193.23C499.173 187.857 497.572 183.517 494.368 180.21C491.268 176.8 487.032 175.095 481.658 175.095C476.595 175.095 472.1 176.8 468.173 180.21C464.35 183.517 462.18 187.857 461.663 193.23H499.173Z" stroke="black" stroke-width="4" mask="url(#path-1-outside-1_7221_23479)"/>
<path d="M395.272 233.686V221.286H408.292V147.506L393.102 143.321L396.822 130.766L423.792 138.361V221.286H436.812V233.686H395.272Z" stroke="black" stroke-width="4" mask="url(#path-1-outside-1_7221_23479)"/>
<path d="M352.775 233.686V221.286H365.795V147.506L348.605 143.321L354.325 130.766L381.295 138.361V221.286H394.315V233.686H352.775Z" stroke="black" stroke-width="4" mask="url(#path-1-outside-1_7221_23479)"/>
<path d="M317.843 229.965C310.817 234.202 303.48 236.32 295.833 236.32C286.533 236.32 279.455 234.512 274.598 230.895C269.845 227.279 267.417 222.009 267.313 215.085C267.21 200.929 276.355 193.85 294.748 193.85L313.038 194.005C313.038 187.495 311.747 182.69 309.163 179.59C306.683 176.387 303.17 174.785 298.623 174.785C296.247 174.785 293.973 174.94 291.803 175.25C289.633 175.56 287.567 176.025 285.603 176.645L284.053 184.705L271.188 182.69L273.978 167.19C278.008 165.744 282.09 164.659 286.223 163.935C290.357 163.109 294.49 162.695 298.623 162.695C308.44 162.695 315.88 165.33 320.943 170.6C326.11 175.767 328.693 183.414 328.693 193.54V219.735L342.333 224.23L338.303 236.94L317.843 229.965ZM295.213 204.855C291.39 204.855 288.445 205.734 286.378 207.49C284.312 209.144 283.278 211.572 283.278 214.775C283.278 221.182 287.67 224.385 296.453 224.385C302.653 224.385 308.182 222.732 313.038 219.425V204.855H295.213Z" stroke="black" stroke-width="4" mask="url(#path-1-outside-1_7221_23479)"/>
<path d="M174.043 233.685L155.597 177.73H144.438V165.485H180.862V177.73H171.562L178.693 202.53L183.497 218.96L187.837 202.84L196.362 175.25H211.862L220.388 203.15L224.883 219.27L229.223 203.615L237.283 177.73H228.138V165.485H262.858V177.73H251.853L232.478 233.685H216.513L203.957 192.61L190.628 233.685H174.043Z" stroke="black" stroke-width="4" mask="url(#path-1-outside-1_7221_23479)"/>
<path d="M542.611 55.99C546.641 53.3033 550.723 51.34 554.856 50.1C559.093 48.7566 563.278 48.085 567.411 48.085C571.234 48.085 574.283 48.55 576.556 49.48L579.191 67.46L566.326 70.25L564.776 61.725C561.366 61.9316 558.111 62.5 555.011 63.43C551.911 64.36 549.224 65.6 546.951 67.15L546.796 106.365H561.986V118.765H518.276V106.365H531.296V66.065L516.416 61.105L520.601 48.55L542.611 55.99Z" stroke="black" stroke-width="4" mask="url(#path-1-outside-1_7221_23479)"/>
<path d="M505.872 110.549C501.532 114.269 496.985 117.008 492.232 118.764C487.582 120.521 482.673 121.399 477.507 121.399C469.86 121.399 463.195 119.901 457.512 116.904C451.828 113.908 447.437 109.671 444.337 104.194C441.34 98.6144 439.842 92.1044 439.842 84.6644C439.842 77.3278 441.288 70.9211 444.182 65.4444C447.075 59.8644 451.157 55.5244 456.427 52.4244C461.8 49.3244 467.948 47.7744 474.872 47.7744C481.692 47.7744 487.582 49.2211 492.542 52.1144C497.502 54.9044 501.325 58.8311 504.012 63.8944C506.802 68.9577 508.197 74.8994 508.197 81.7194C508.197 82.8561 508.145 84.0961 508.042 85.4394C507.938 86.7828 507.783 88.0744 507.577 89.3144L454.877 89.4694C455.187 94.0161 456.375 97.7361 458.442 100.629C460.612 103.419 463.298 105.538 466.502 106.984C469.808 108.328 473.373 108.999 477.197 108.999C481.64 108.999 485.773 108.328 489.597 106.984C493.42 105.641 496.882 103.678 499.982 101.094L505.872 110.549ZM492.697 78.3094C492.697 72.9361 491.095 68.5961 487.892 65.2894C484.792 61.8794 480.555 60.1744 475.182 60.1744C470.118 60.1744 465.623 61.8794 461.697 65.2894C457.873 68.5961 455.703 72.9361 455.187 78.3094H492.697Z" stroke="black" stroke-width="4" mask="url(#path-1-outside-1_7221_23479)"/>
<path d="M342.91 118.765V106.365H355.93V33.515L341.205 28.4L345.235 16L371.43 24.835V53.975C378.043 49.8417 385.277 47.775 393.13 47.775C401.913 47.775 408.527 50.1 412.97 54.75C417.413 59.4 419.635 66.2717 419.635 75.365V106.365H432.655V118.765H397.47V106.365H403.98V77.845C403.98 71.8517 402.792 67.5117 400.415 64.825C398.142 62.1383 394.473 60.795 389.41 60.795C386.62 60.795 383.572 61.2083 380.265 62.035C376.958 62.8617 374.065 63.9467 371.585 65.29V106.365H378.25V118.765H342.91Z" stroke="black" stroke-width="4" mask="url(#path-1-outside-1_7221_23479)"/>
<path d="M320.477 121.399C315.931 121.399 311.849 120.521 308.232 118.764C304.616 117.008 301.774 114.166 299.707 110.239C297.641 106.209 296.607 100.939 296.607 94.4294V62.8094H283.742V50.5644H296.607V36.6144L311.642 32.2744V50.5644H330.552V62.8094H311.642V88.6944C311.642 94.9978 312.366 100.009 313.812 103.729C315.362 107.346 318.152 109.154 322.182 109.154C325.179 109.154 328.692 108.173 332.722 106.209L335.667 117.524C333.291 118.558 330.811 119.436 328.227 120.159C325.644 120.986 323.061 121.399 320.477 121.399Z" stroke="black" stroke-width="4" mask="url(#path-1-outside-1_7221_23479)"/>
<path d="M256.355 115.044C249.328 119.281 241.992 121.399 234.345 121.399C225.045 121.399 217.967 119.591 213.11 115.974C208.357 112.358 205.928 107.088 205.825 100.164C205.722 86.0078 214.867 78.9294 233.26 78.9294L251.55 79.0844C251.55 72.5744 250.258 67.7694 247.675 64.6694C245.195 61.4661 241.682 59.8644 237.135 59.8644C234.758 59.8644 232.485 60.0194 230.315 60.3294C228.145 60.6394 226.078 61.1044 224.115 61.7244L222.565 69.7844L209.7 67.7694L212.49 52.2694C216.52 50.8228 220.602 49.7377 224.735 49.0144C228.868 48.1877 233.002 47.7744 237.135 47.7744C246.952 47.7744 254.392 50.4094 259.455 55.6794C264.622 60.8461 267.205 68.4927 267.205 78.6194V104.814L280.845 109.309L276.815 122.019L256.355 115.044ZM233.725 89.9344C229.902 89.9344 226.957 90.8128 224.89 92.5694C222.823 94.2228 221.79 96.6511 221.79 99.8544C221.79 106.261 226.182 109.464 234.965 109.464C241.165 109.464 246.693 107.811 251.55 104.504V89.9344H233.725Z" stroke="black" stroke-width="4" mask="url(#path-1-outside-1_7221_23479)"/>
<path d="M192.997 110.549C188.657 114.269 184.11 117.008 179.357 118.764C174.707 120.521 169.798 121.399 164.632 121.399C156.985 121.399 150.32 119.901 144.637 116.904C138.953 113.908 134.562 109.671 131.462 104.194C128.465 98.6144 126.967 92.1044 126.967 84.6644C126.967 77.3278 128.413 70.9211 131.307 65.4444C134.2 59.8644 138.282 55.5244 143.552 52.4244C148.925 49.3244 155.073 47.7744 161.997 47.7744C168.817 47.7744 174.707 49.2211 179.667 52.1144C184.627 54.9044 188.45 58.8311 191.137 63.8944C193.927 68.9577 195.322 74.8994 195.322 81.7194C195.322 82.8561 195.27 84.0961 195.167 85.4394C195.063 86.7828 194.908 88.0744 194.702 89.3144L142.002 89.4694C142.312 94.0161 143.5 97.7361 145.567 100.629C147.737 103.419 150.423 105.538 153.627 106.984C156.933 108.328 160.498 108.999 164.322 108.999C168.765 108.999 172.898 108.328 176.722 106.984C180.545 105.641 184.007 103.678 187.107 101.094L192.997 110.549ZM179.822 78.3094C179.822 72.9361 178.22 68.5961 175.017 65.2894C171.917 61.8794 167.68 60.1744 162.307 60.1744C157.243 60.1744 152.748 61.8794 148.822 65.2894C144.998 68.5961 142.828 72.9361 142.312 78.3094H179.822Z" stroke="black" stroke-width="4" mask="url(#path-1-outside-1_7221_23479)"/>
<path d="M41 27.4697H89.205V41.2647H72.62L72.465 104.97H98.97L104.705 89.1597L117.725 93.6547L109.045 118.765H41V104.97H56.81L56.965 41.2647H41V27.4697Z" stroke="black" stroke-width="4" mask="url(#path-1-outside-1_7221_23479)"/>
</svg>
